<?xml version="1.0" encoding="UTF-8" standalone="no"?>
<!-- Created with Inkscape (http://www.inkscape.org/) -->

<svg
   xmlns:dc="http://purl.org/dc/elements/1.1/"
   xmlns:cc="http://creativecommons.org/ns#"
   xmlns:rdf="http://www.w3.org/1999/02/22-rdf-syntax-ns#"
   xmlns:svg="http://www.w3.org/2000/svg"
   xmlns="http://www.w3.org/2000/svg"
   xmlns:sodipodi="http://sodipodi.sourceforge.net/DTD/sodipodi-0.dtd"
   xmlns:inkscape="http://www.inkscape.org/namespaces/inkscape"
   width="225mm"
   height="200mm"
   viewBox="0 0 225 200"
   version="1.1"
   id="svg8"
   inkscape:version="0.92.2 (5c3e80d, 2017-08-06)"
   sodipodi:docname="pudgi-vector.svg">
  <defs
     id="defs2" />
  <sodipodi:namedview
     id="base"
     pagecolor="#ffffff"
     bordercolor="#666666"
     borderopacity="1.0"
     inkscape:pageopacity="0.0"
     inkscape:pageshadow="2"
     inkscape:zoom="0.45254834"
     inkscape:cx="328.70965"
     inkscape:cy="406.83292"
     inkscape:document-units="mm"
     inkscape:current-layer="layer1"
     showgrid="true"
     inkscape:snap-smooth-nodes="false"
     inkscape:snap-nodes="true"
     inkscape:snap-global="true"
     borderlayer="true"
     inkscape:showpageshadow="false"
     showborder="true"
     inkscape:snap-bbox="true"
     inkscape:bbox-nodes="true"
     inkscape:object-nodes="false"
     inkscape:snap-others="false"
     inkscape:bbox-paths="false"
     inkscape:window-width="1368"
     inkscape:window-height="849"
     inkscape:window-x="-8"
     inkscape:window-y="-8"
     inkscape:window-maximized="1">
    <inkscape:grid
       type="xygrid"
       id="grid4551"
       spacingx="6.6145834"
       spacingy="6.6145834"
       dotted="true"
       empspacing="1" />
  </sodipodi:namedview>
  <metadata
     id="metadata5">
    <rdf:RDF>
      <cc:Work
         rdf:about="">
        <dc:format>image/svg+xml</dc:format>
        <dc:type
           rdf:resource="http://purl.org/dc/dcmitype/StillImage" />
        <dc:title></dc:title>
      </cc:Work>
    </rdf:RDF>
  </metadata>
  <g
     inkscape:label="Layer 1"
     inkscape:groupmode="layer"
     id="layer1"
     transform="translate(0,-97)">
    <g
       id="g4549"
       transform="matrix(2.2709957,0,0,2.2394962,-132.69939,-7.5497188)"
       style="stroke-width:0.44342142">
      <path
         id="path4506"
         transform="scale(0.26458333)"
         d="M 410,188.23438 A 135.71429,142.85714 0 0 0 274.28516,331.0918 135.71429,142.85714 0 0 0 303.86719,420.10352 187.14284,44.285715 0 0 0 222.85742,456.51953 187.14284,44.285715 0 0 0 410,500.80469 187.14284,44.285715 0 0 0 597.14258,456.51953 187.14284,44.285715 0 0 0 516.03125,420.0332 135.71429,142.85714 0 0 0 545.71484,331.0918 135.71429,142.85714 0 0 0 410,188.23438 Z"
         style="opacity:1;fill:#ffffff;fill-opacity:0.99497483;stroke:#000000;stroke-width:4.02221632;stroke-linecap:round;stroke-linejoin:round;stroke-miterlimit:4;stroke-dasharray:none;stroke-opacity:1"
         inkscape:connector-curvature="0" />
      <path
         id="path4513"
         d="M 101.6,76.186302 A 6.0476193,10.205358 0 0 1 95.552383,86.39166 6.0476193,10.205358 0 0 1 89.504764,76.186302 6.0476193,10.205358 0 0 1 95.552383,65.980945 6.0476193,10.205358 0 0 1 101.6,76.186302 Z"
         style="opacity:1;fill:#ffffff;fill-opacity:0.99497483;stroke:#000000;stroke-width:1.06421149;stroke-linecap:round;stroke-linejoin:round;stroke-miterlimit:4;stroke-dasharray:none;stroke-opacity:1"
         inkscape:connector-curvature="0" />
      <path
         id="ellipse4515"
         d="m 125.41249,76.186302 a 6.0476193,10.205358 0 0 1 -6.04762,10.205358 6.0476193,10.205358 0 0 1 -6.04762,-10.205358 6.0476193,10.205358 0 0 1 6.04762,-10.205357 6.0476193,10.205358 0 0 1 6.04762,10.205357 z"
         style="opacity:1;fill:#ffffff;fill-opacity:0.99497483;stroke:#000000;stroke-width:1.06421149;stroke-linecap:round;stroke-linejoin:round;stroke-miterlimit:4;stroke-dasharray:none;stroke-opacity:1"
         inkscape:connector-curvature="0" />
      <path
         id="path4517"
         d="m 100.54167,77.584808 a 3.0238097,5.1026788 0 0 1 -3.02381,5.102679 3.0238097,5.1026788 0 0 1 -3.023809,-5.102679 3.0238097,5.1026788 0 0 1 3.023809,-5.102678 3.0238097,5.1026788 0 0 1 3.02381,5.102678 z"
         style="opacity:1;fill:#000000;fill-opacity:0.99497483;stroke:#000000;stroke-width:1.06421149;stroke-linecap:round;stroke-linejoin:round;stroke-miterlimit:4;stroke-dasharray:none;stroke-opacity:1"
         inkscape:connector-curvature="0" />
      <path
         id="ellipse4519"
         d="m 123.82498,77.055641 a 3.0238097,5.1026788 0 0 1 -3.02381,5.102679 3.0238097,5.1026788 0 0 1 -3.02381,-5.102679 3.0238097,5.1026788 0 0 1 3.02381,-5.102679 3.0238097,5.1026788 0 0 1 3.02381,5.102679 z"
         style="opacity:1;fill:#000000;fill-opacity:0.99497483;stroke:#000000;stroke-width:1.06421149;stroke-linecap:round;stroke-linejoin:round;stroke-miterlimit:4;stroke-dasharray:none;stroke-opacity:1"
         inkscape:connector-curvature="0" />
      <path
         inkscape:connector-curvature="0"
         id="path4521"
         d="m 101.85547,100.47656 -1.00586,0.85938 c 0,0 0.84726,0.99478 2.13086,1.98437 1.2836,0.98959 3.02783,2.02735 4.95703,2.02735 1.9292,0 3.5884,-1.04762 4.77344,-2.04493 1.18504,-0.9973 1.92968,-2.00195 1.92968,-2.00195 l -1.0625,-0.78906 c 0,0 -0.66011,0.88477 -1.7207,1.77734 -1.06059,0.89257 -2.48637,1.73438 -3.91992,1.73438 -1.43355,0 -2.98262,-0.85166 -4.15039,-1.75196 -1.16778,-0.90029 -1.93164,-1.79492 -1.93164,-1.79492 z"
         style="color:#000000;font-style:normal;font-variant:normal;font-weight:normal;font-stretch:normal;font-size:medium;line-height:normal;font-family:sans-serif;font-variant-ligatures:normal;font-variant-position:normal;font-variant-caps:normal;font-variant-numeric:normal;font-variant-alternates:normal;font-feature-settings:normal;text-indent:0;text-align:start;text-decoration:none;text-decoration-line:none;text-decoration-style:solid;text-decoration-color:#000000;letter-spacing:normal;word-spacing:normal;text-transform:none;writing-mode:lr-tb;direction:ltr;text-orientation:mixed;dominant-baseline:auto;baseline-shift:baseline;text-anchor:start;white-space:normal;shape-padding:0;clip-rule:nonzero;display:inline;overflow:visible;visibility:visible;opacity:1;isolation:auto;mix-blend-mode:normal;color-interpolation:sRGB;color-interpolation-filters:linearRGB;solid-color:#000000;solid-opacity:1;vector-effect:none;fill:#000000;fill-opacity:1;fill-rule:nonzero;stroke:none;stroke-width:0.58660954;stroke-linecap:butt;stroke-linejoin:miter;stroke-miterlimit:4;stroke-dasharray:none;stroke-dashoffset:0;stroke-opacity:1;color-rendering:auto;image-rendering:auto;shape-rendering:auto;text-rendering:auto;enable-background:accumulate" />
    </g>
  </g>
</svg>
